<svg xmlns="http://www.w3.org/2000/svg"
     width="126pt" height="40pt" viewBox="0 0 126 40"
     preserveAspectRatio="xMidYMid meet">
  <g transform="translate(0,40) scale(0.1,-0.1)" stroke="none">
    <path fill="#000000" d="M502 359 c-140 -16 -304 -71 -402 -135 -30 -20 -46 -33 -35 -29 11 3 47 15 79 26 289 98 716 95 996 -7 35 -13 66 -21 68 -19 14 13 -192 108 -294 135 -137 36 -271 45 -412 29z"/>
    <path fill="#100180" d="M581 226 c-68 -38 -66 -152 4 -184 76 -35 155 12 155 91 -1 84 -86 134 -159 93z"/>
  </g>
</svg>

